<svg aria-hidden="true" focusable="false" xmlns="http://www.w3.org/2000/svg" width="32" height="27" viewBox="0 0 32 27" fill="none">
<path d="M31.5309 16.9615L26.3722 3.07116C26.3708 3.06843 26.3708 3.06569 26.3695 3.06315L26.3681 3.06179C25.6881 1.22991 23.9321 0 22.0001 0C20.0682 0 18.3122 1.22991 17.6308 3.06315C17.4335 3.595 17.3336 4.15536 17.3336 4.7251V10.8002H14.6668V4.7251C14.6668 2.11958 12.5734 0 10.0001 0C8.0681 0 6.31208 1.22991 5.63073 3.06315C5.62938 3.06589 5.62938 3.06862 5.62803 3.07116L0.469342 16.9574C0.469342 16.9588 0.46799 16.9588 0.46799 16.9588C0.157411 17.7971 0 18.676 0 19.575C0 23.6697 3.29078 27 7.33332 27C11.3759 27 14.6666 23.6695 14.6666 19.575V18.9H17.3334V19.575C17.3334 23.6697 20.6241 27 24.6667 27C28.7092 27 32 23.6695 32 19.575C32 18.676 31.8426 17.7971 31.5307 16.9615H31.5309ZM7.33332 24.3003C4.75995 24.3003 2.66654 22.1808 2.66654 19.5752C2.66654 19.0028 2.76647 18.4426 2.96381 17.9121C3.6438 16.0814 5.39982 14.8503 7.33313 14.8503C9.90649 14.8503 11.9999 16.9699 11.9999 19.5754C11.9999 22.181 9.90649 24.3005 7.33313 24.3005L7.33332 24.3003ZM24.6667 24.3003C22.0933 24.3003 19.9999 22.1808 19.9999 19.5752C19.9999 16.9697 22.0933 14.8501 24.6667 14.8501C26.6 14.8501 28.356 16.0814 29.036 17.9119C29.2333 18.4424 29.3333 19.0028 29.3333 19.575C29.3333 22.1806 27.2399 24.3001 24.6665 24.3001L24.6667 24.3003Z" fill="#426BBA"></path>
</svg>
