<svg width="80" height="80" viewBox="0 0 80 80" fill="none" xmlns="http://www.w3.org/2000/svg">
<g filter="url(#filter0_d_492_117334)">
<rect x="14.4543" y="11.5635" width="50.5906" height="50.5906" rx="10.8409" fill="white"/>
</g>
<path d="M32.6019 36.029H44.1708C44.4097 36.029 44.6035 35.8352 44.6035 35.5963C44.6035 35.3574 44.4097 35.1636 44.1708 35.1636L32.6019 35.1638C32.363 35.1638 32.1692 35.3576 32.1692 35.5965C32.1692 35.8354 32.363 36.029 32.6019 36.029Z" fill="#426BBA" stroke="#426BBA" stroke-width="0.2"/>
<path d="M32.6019 39.0229H44.1708C44.4097 39.0229 44.6035 38.8291 44.6035 38.5902C44.6035 38.3513 44.4097 38.1575 44.1708 38.1575H32.6019C32.363 38.1575 32.1692 38.3513 32.1692 38.5902C32.1692 38.8291 32.363 39.0229 32.6019 39.0229Z" fill="#426BBA" stroke="#426BBA" stroke-width="0.2"/>
<path d="M32.6019 42.0171H44.1708C44.4097 42.0171 44.6035 41.8233 44.6035 41.5843C44.6035 41.3454 44.4097 41.1516 44.1708 41.1516L32.6019 41.1518C32.363 41.1518 32.1692 41.3456 32.1692 41.5845C32.1692 41.8233 32.363 42.0171 32.6019 42.0171V42.0171Z" fill="#426BBA" stroke="#426BBA" stroke-width="0.2"/>
<path d="M32.6019 45.0115H44.1708C44.4097 45.0115 44.6035 44.8177 44.6035 44.5787C44.6035 44.3398 44.4097 44.146 44.1708 44.146H32.6019C32.363 44.146 32.1692 44.3398 32.1692 44.5787C32.1692 44.8177 32.363 45.0115 32.6019 45.0115Z" fill="#426BBA" stroke="#426BBA" stroke-width="0.2"/>
<path d="M34.692 31.6402H36.6285V33.5751C36.6285 33.814 36.8223 34.0078 37.0613 34.0078H39.7081C39.947 34.0078 40.1408 33.814 40.1408 33.5751L40.1406 31.6402H42.0772C42.3162 31.6402 42.5099 31.4464 42.5099 31.2074V28.5624C42.5099 28.3235 42.3162 28.1297 42.0772 28.1297H40.1406V26.1949C40.1406 25.956 39.9468 25.7622 39.7079 25.7622H37.0611C36.8221 25.7622 36.6283 25.956 36.6283 26.1949V28.1299H34.6918C34.4528 28.1299 34.259 28.3237 34.259 28.5626V31.2076C34.2594 31.4466 34.453 31.6402 34.692 31.6402V31.6402ZM35.1247 28.9951H37.0613C37.3002 28.9951 37.494 28.8013 37.494 28.5624L37.4938 26.6275H39.2754V28.5624C39.2754 28.8013 39.4692 28.9951 39.7081 28.9951H41.6447V30.7749H39.7081C39.4692 30.7749 39.2754 30.9687 39.2754 31.2076V33.1426H37.4938V31.2076C37.4938 30.9687 37.3 30.7749 37.0611 30.7749H35.1245L35.1247 28.9951Z" fill="#426BBA" stroke="#426BBA" stroke-width="0.2"/>
<path d="M51.5552 24.5093H48.7834V22.4357C48.7834 22.1967 48.5896 22.0029 48.3507 22.0029H28.4203C28.1813 22.0029 27.9875 22.1967 27.9875 22.4357V48.3379C27.9875 48.5768 28.1813 48.7706 28.4203 48.7706H31.1943V50.8467C31.1943 51.0856 31.3881 51.2794 31.627 51.2794L51.5548 51.279C51.7938 51.279 51.9875 51.0852 51.9875 50.8463V24.9414C51.9875 24.7025 51.7938 24.5089 51.5548 24.5089L51.5552 24.5093ZM28.853 22.8682H47.9182V47.9052L31.6275 47.9054H28.8534L28.853 22.8682ZM51.1224 50.4141H32.0598V48.7707H48.3505C48.5895 48.7707 48.7833 48.5769 48.7833 48.338V25.3744H51.1223L51.1225 50.414L51.1224 50.4141Z" fill="#426BBA" stroke="#426BBA" stroke-width="0.2"/>
<defs>
<filter id="filter0_d_492_117334" x="-0.000121117" y="-9.67979e-05" width="79.4995" height="79.4995" filterUnits="userSpaceOnUse" color-interpolation-filters="sRGB">
<feFlood flood-opacity="0" result="BackgroundImageFix"/>
<feColorMatrix in="SourceAlpha" type="matrix" values="0 0 0 0 0 0 0 0 0 0 0 0 0 0 0 0 0 0 127 0" result="hardAlpha"/>
<feOffset dy="2.89089"/>
<feGaussianBlur stdDeviation="7.22723"/>
<feColorMatrix type="matrix" values="0 0 0 0 0.090196 0 0 0 0 0.0588235 0 0 0 0 0.286275 0 0 0 0.08 0"/>
<feBlend mode="normal" in2="BackgroundImageFix" result="effect1_dropShadow_492_117334"/>
<feBlend mode="normal" in="SourceGraphic" in2="effect1_dropShadow_492_117334" result="shape"/>
</filter>
</defs>
</svg>
