<svg width="81" height="80" viewBox="0 0 81 80" fill="none" xmlns="http://www.w3.org/2000/svg">
<g filter="url(#filter0_d_3_4257)">
<rect x="15.1813" y="12" width="50.5906" height="50.5906" rx="10.8409" fill="white"/>
</g>
<path d="M33.3288 36.4656H44.8976C45.1366 36.4656 45.3304 36.2718 45.3304 36.0328C45.3304 35.7939 45.1366 35.6001 44.8976 35.6001L33.3288 35.6003C33.0899 35.6003 32.8961 35.7941 32.8961 36.033C32.8961 36.272 33.0899 36.4656 33.3288 36.4656Z" fill="#BA202E" stroke="#BA202E" stroke-width="0.2"/>
<path d="M33.3288 39.4595H44.8976C45.1366 39.4595 45.3304 39.2657 45.3304 39.0267C45.3304 38.7878 45.1366 38.594 44.8976 38.594H33.3288C33.0899 38.594 32.8961 38.7878 32.8961 39.0267C32.8961 39.2657 33.0899 39.4595 33.3288 39.4595Z" fill="#BA202E" stroke="#BA202E" stroke-width="0.2"/>
<path d="M33.3288 42.4536H44.8976C45.1366 42.4536 45.3304 42.2598 45.3304 42.0209C45.3304 41.7819 45.1366 41.5881 44.8976 41.5881L33.3288 41.5883C33.0899 41.5883 32.8961 41.7821 32.8961 42.0211C32.8961 42.2598 33.0899 42.4536 33.3288 42.4536V42.4536Z" fill="#BA202E" stroke="#BA202E" stroke-width="0.2"/>
<path d="M33.3288 45.448H44.8976C45.1366 45.448 45.3304 45.2542 45.3304 45.0153C45.3304 44.7763 45.1366 44.5825 44.8976 44.5825H33.3288C33.0899 44.5825 32.8961 44.7763 32.8961 45.0153C32.8961 45.2542 33.0899 45.448 33.3288 45.448Z" fill="#BA202E" stroke="#BA202E" stroke-width="0.2"/>
<path d="M35.4189 32.0767H37.3555V34.0116C37.3555 34.2506 37.5493 34.4444 37.7882 34.4444H40.435C40.674 34.4444 40.8678 34.2506 40.8678 34.0116L40.8676 32.0767H42.8041C43.0431 32.0767 43.2369 31.8829 43.2369 31.644V28.9989C43.2369 28.76 43.0431 28.5662 42.8041 28.5662H40.8676V26.6315C40.8676 26.3925 40.6738 26.1987 40.4348 26.1987H37.788C37.5491 26.1987 37.3553 26.3925 37.3553 26.6315V28.5664H35.4187C35.1798 28.5664 34.986 28.7602 34.986 28.9991V31.6442C34.9864 31.8831 35.18 32.0767 35.4189 32.0767V32.0767ZM35.8516 29.4317H37.7882C38.0271 29.4317 38.2209 29.2379 38.2209 28.9989L38.2207 27.064H40.0023V28.9989C40.0023 29.2379 40.1961 29.4317 40.435 29.4317H42.3716V31.2114H40.435C40.1961 31.2114 40.0023 31.4052 40.0023 31.6441V33.5791H38.2207V31.6441C38.2207 31.4052 38.0269 31.2114 37.788 31.2114H35.8514L35.8516 29.4317Z" fill="#BA202E" stroke="#BA202E" stroke-width="0.2"/>
<path d="M52.2822 24.9458H49.5103V22.8722C49.5103 22.6333 49.3165 22.4395 49.0776 22.4395H29.1472C28.9083 22.4395 28.7145 22.6333 28.7145 22.8722V48.7744C28.7145 49.0133 28.9083 49.2071 29.1472 49.2071H31.9212V51.2832C31.9212 51.5221 32.115 51.7159 32.354 51.7159L52.2817 51.7155C52.5207 51.7155 52.7145 51.5217 52.7145 51.2828V25.3779C52.7145 25.139 52.5207 24.9454 52.2817 24.9454L52.2822 24.9458ZM29.5799 23.3047H48.6451V48.3417L32.3544 48.3419H29.5804L29.5799 23.3047ZM51.8493 50.8506H32.7867V49.2072H49.0775C49.3164 49.2072 49.5102 49.0134 49.5102 48.7745V25.8109H51.8493L51.8495 50.8505L51.8493 50.8506Z" fill="#BA202E" stroke="#BA202E" stroke-width="0.2"/>
<defs>
<filter id="filter0_d_3_4257" x="0.726808" y="0.436427" width="79.4996" height="79.4995" filterUnits="userSpaceOnUse" color-interpolation-filters="sRGB">
<feFlood flood-opacity="0" result="BackgroundImageFix"/>
<feColorMatrix in="SourceAlpha" type="matrix" values="0 0 0 0 0 0 0 0 0 0 0 0 0 0 0 0 0 0 127 0" result="hardAlpha"/>
<feOffset dy="2.89089"/>
<feGaussianBlur stdDeviation="7.22723"/>
<feColorMatrix type="matrix" values="0 0 0 0 0.090196 0 0 0 0 0.0588235 0 0 0 0 0.286275 0 0 0 0.08 0"/>
<feBlend mode="normal" in2="BackgroundImageFix" result="effect1_dropShadow_3_4257"/>
<feBlend mode="normal" in="SourceGraphic" in2="effect1_dropShadow_3_4257" result="shape"/>
</filter>
</defs>
</svg>
