<svg width="28" height="24" viewBox="0 0 28 24" fill="none" xmlns="http://www.w3.org/2000/svg">
<path d="M26.4258 20.4916H1.81076C1.01276 20.4916 0.398926 21.1667 0.398926 21.9647C0.398926 22.8241 1.01276 23.4378 1.81076 23.4378H26.4258C27.2236 23.4378 27.8989 22.8241 27.8989 22.0261C27.8989 21.1667 27.2236 20.4916 26.4258 20.4916ZM26.4258 0.848633H1.81076C1.01276 0.848633 0.398926 1.52386 0.398926 2.32185C0.398926 3.05845 1.01276 3.79506 1.81076 3.79506H26.4258C27.2236 3.79506 27.8989 3.18122 27.8989 2.38323C27.8989 1.64662 27.2236 0.848633 26.4258 0.848633ZM26.4258 10.6701H1.81076C1.01276 10.6701 0.398926 11.3453 0.398926 12.1433C0.398926 13.0026 1.01276 13.6165 1.81076 13.6165H26.4258C27.2236 13.6165 27.8989 13.0026 27.8989 12.1433C27.8989 11.3453 27.2236 10.6701 26.4258 10.6701Z" fill="#4A6CB3"/>
</svg>
