<svg aria-hidden="true" focusable="false" xmlns="http://www.w3.org/2000/svg" width="29" height="28" viewBox="0 0 29 28" fill="none">
<path d="M28.1269 9.55628C28.1698 6.39681 23.5989 6.397 23.6281 9.54082C23.6241 10.7165 23.6287 11.8609 23.6281 13.041C22.4269 12.9843 21.7733 13.8231 21.0501 14.569C19.3371 16.6803 18.8804 14.716 16.8579 16.4199C13.8408 18.3497 14.8762 24.8347 14.7457 26.5331C14.7457 26.9374 15.0734 27.2651 15.4775 27.2651V27.2647C17.3066 27.2647 19.1356 27.2655 20.9644 27.2643C22.0021 27.2636 22.4946 26.7853 22.4187 25.7453C22.3648 25.0088 22.5648 24.4782 23.1257 23.9573C24.4736 22.7053 25.7365 21.3622 27.0501 20.0726C27.7832 19.3529 28.1483 18.5081 28.1416 17.476C28.1244 14.836 28.1303 12.196 28.1269 9.55609V9.55628ZM26.2135 18.8274C24.5936 20.5165 22.9211 22.1552 21.28 23.8245C20.8154 24.3635 21.0484 25.1553 21.0028 25.8117H16.1624C16.1477 24.2791 16.2446 22.7734 16.1406 21.2511C15.9063 19.4174 17.3812 16.8623 19.4224 17.096C21.0175 17.4032 21.8296 15.5511 22.9385 14.7205C23.6081 14.0363 24.649 15.0374 23.9933 15.7433C23.1031 16.6606 22.1822 17.5504 21.2858 18.4623C20.4658 19.2 21.5544 20.2848 22.2881 19.4861C23.1867 18.5942 24.0843 17.7012 24.972 16.7984C26.0496 15.6882 25.6262 14.7268 25.0724 13.5189C25.0604 12.1583 25.0579 10.7974 25.0713 9.437C25.0684 8.30883 26.7244 8.3491 26.6875 9.46639C26.4875 11.5032 27.2264 17.6199 26.2137 18.8276L26.2135 18.8274Z" fill="#426BBA"></path>
<path d="M11.2837 16.4202C9.26123 14.7162 8.8046 16.6807 7.09159 14.5692C6.36819 13.8234 5.71481 12.9845 4.51359 13.0412C4.51302 11.8611 4.5176 10.7168 4.51359 9.54107C4.54279 6.39725 -0.0279604 6.39706 0.0147836 9.55653C0.0113488 12.1965 0.0172639 14.8364 9.00004e-05 17.4764C-0.00658876 18.5086 0.358457 19.3533 1.09159 20.073C2.40521 21.3626 3.66806 22.7059 5.01602 23.9578C5.57685 24.4786 5.77684 25.0092 5.72302 25.7457C5.64708 26.7857 6.13978 27.264 7.17727 27.2648C9.0063 27.2661 10.8351 27.2653 12.6642 27.2651V27.2655C13.0683 27.2655 13.396 26.9378 13.396 26.5336C13.2654 24.8351 14.301 18.3501 11.2837 16.4204V16.4202ZM12.0009 21.2512C11.8969 22.7735 11.9938 24.279 11.9791 25.8118H7.13873C7.09312 25.1554 7.32611 24.3635 6.86146 23.8245C5.22039 22.1553 3.54803 20.5166 1.92796 18.8275C0.915266 17.6199 1.65414 11.5031 1.45415 9.46625C1.41714 8.34877 3.07327 8.30869 3.07041 9.43686C3.08377 10.7973 3.08128 12.1583 3.06926 13.5187C2.5155 14.7269 2.09207 15.688 3.16964 16.7983C4.05715 17.701 4.95496 18.5941 5.85354 19.4859C6.58725 20.2847 7.67589 19.1998 6.85593 18.4622C5.95944 17.5503 5.03855 16.6603 4.14836 15.7432C3.4927 15.0372 4.53363 14.0362 5.20322 14.7204C6.31189 15.551 7.12423 17.4033 8.71931 17.0958C10.7605 16.8624 12.2352 19.4172 12.0011 21.251L12.0009 21.2512Z" fill="#426BBA"></path>
<path d="M21.4037 4.24851C21.4037 2.06471 19.5775 0 17.5529 0C15.5283 0 14.071 1.94561 14.071 1.94561C14.071 1.94561 12.6137 0 10.5891 0C8.56445 0 6.73828 2.06471 6.73828 4.24851C6.73828 6.43231 8.58105 10.6014 14.0708 14.0558C19.5605 10.6014 21.4033 6.43231 21.4033 4.24851H21.4037Z" fill="#426BBA"></path>
</svg>