<svg width="80" height="80" viewBox="0 0 80 80" fill="none" xmlns="http://www.w3.org/2000/svg">
<g filter="url(#filter0_d_3_4256)">
<rect x="14.5906" y="12" width="50.5906" height="50.5906" rx="10.8409" fill="white"/>
</g>
<path d="M49.618 43.5377C49.0043 42.924 48.1221 42.6938 47.2782 42.8473C46.2426 43.0391 45.4371 43.8829 45.2453 44.8802C45.0919 45.6856 45.2837 46.4528 45.7823 47.0665L44.9385 47.7952C43.5193 49.0226 41.5631 49.3679 39.9521 48.5624C38.3795 47.8336 37.3439 46.2226 37.3439 44.4966V40.661C41.2946 40.2774 44.4015 36.9404 44.4015 32.913V25.9705C44.4015 24.7814 43.4426 23.8225 42.2535 23.8225H41.3713C40.9878 23.8225 40.6426 24.1294 40.6426 24.5513C40.6426 24.9348 40.9494 25.2801 41.3713 25.2801H42.2535C42.6371 25.2801 42.9439 25.5869 42.9439 25.9705V32.9513C42.9439 36.4418 40.1056 39.2801 36.6151 39.2801C33.1247 39.2801 30.2863 36.4418 30.2863 32.9513V25.9705C30.2863 25.5869 30.5932 25.2801 30.9768 25.2801H31.859C32.2425 25.2801 32.5877 24.9732 32.5877 24.5513C32.5877 24.1677 32.2809 23.8225 31.859 23.8225H30.9768C29.7877 23.8225 28.8288 24.7814 28.8288 25.9705V32.9513C28.8288 36.9404 31.8973 40.3157 35.8864 40.6993V44.4199C35.8864 46.0308 36.4617 47.4884 37.459 48.6007C38.6097 49.8281 40.1439 50.5185 41.8316 50.5185C43.2892 50.5185 44.67 49.9816 45.7823 49.0226L46.9714 47.9487C47.47 48.1021 47.9686 48.1021 48.4673 47.987C49.4645 47.7185 50.1933 46.8747 50.3467 45.8774C50.5385 44.9952 50.27 44.1514 49.618 43.5377ZM49.0042 45.4555C49.0042 46.1076 48.4673 46.6446 47.8152 46.6446C47.1631 46.6446 46.6262 46.1076 46.6262 45.4555C46.6262 44.8034 47.1631 44.2665 47.8152 44.2665C48.4673 44.2665 49.0042 44.8034 49.0042 45.4555Z" fill="#BA202E"/>
<defs>
<filter id="filter0_d_3_4256" x="0.13617" y="0.436427" width="79.4996" height="79.4995" filterUnits="userSpaceOnUse" color-interpolation-filters="sRGB">
<feFlood flood-opacity="0" result="BackgroundImageFix"/>
<feColorMatrix in="SourceAlpha" type="matrix" values="0 0 0 0 0 0 0 0 0 0 0 0 0 0 0 0 0 0 127 0" result="hardAlpha"/>
<feOffset dy="2.89089"/>
<feGaussianBlur stdDeviation="7.22723"/>
<feColorMatrix type="matrix" values="0 0 0 0 0.090196 0 0 0 0 0.0588235 0 0 0 0 0.286275 0 0 0 0.08 0"/>
<feBlend mode="normal" in2="BackgroundImageFix" result="effect1_dropShadow_3_4256"/>
<feBlend mode="normal" in="SourceGraphic" in2="effect1_dropShadow_3_4256" result="shape"/>
</filter>
</defs>
</svg>
