
<svg width="80" height="80" viewBox="0 0 80 80" fill="none" xmlns="http://www.w3.org/2000/svg">
  <g filter="url(#filter0_d_492_124552)">
    <rect x="14.4543" y="11.5635" width="50.5906" height="50.5906" rx="10.8409" fill="#426BBA"/>
  </g>
  <path d="M49.4818 43.1012C48.8681 42.4875 47.9859 42.2573 47.142 42.4107C46.1064 42.6025 45.3009 43.4464 45.1092 44.4436C44.9557 45.2491 45.1475 46.0162 45.6461 46.6299L44.8023 47.3587C43.3831 48.5861 41.4269 48.9313 39.816 48.1258C38.2434 47.3971 37.2077 45.7861 37.2077 44.0601V40.2244C41.1585 39.8409 44.2653 36.5039 44.2653 32.4764V25.5339C44.2653 24.3449 43.3064 23.386 42.1174 23.386H41.2352C40.8516 23.386 40.5064 23.6928 40.5064 24.1148C40.5064 24.4983 40.8132 24.8435 41.2352 24.8435H42.1174C42.5009 24.8435 42.8078 25.1504 42.8078 25.5339V32.5148C42.8078 36.0052 39.9694 38.8436 36.479 38.8436C32.9885 38.8436 30.1502 36.0052 30.1502 32.5148V25.5339C30.1502 25.1504 30.457 24.8435 30.8406 24.8435H31.7228C32.1063 24.8435 32.4516 24.5367 32.4516 24.1148C32.4516 23.7312 32.1447 23.386 31.7228 23.386H30.8406C29.6515 23.386 28.6926 24.3449 28.6926 25.5339V32.5148C28.6926 36.5039 31.7611 39.8792 35.7502 40.2628V43.9834C35.7502 45.5943 36.3255 47.0519 37.3228 48.1642C38.4735 49.3916 40.0078 50.082 41.6954 50.082C43.153 50.082 44.5338 49.545 45.6461 48.5861L46.8352 47.5121C47.3338 47.6656 47.8325 47.6656 48.3311 47.5505C49.3284 47.282 50.0571 46.4382 50.2106 45.4409C50.4023 44.5587 50.1338 43.7149 49.4818 43.1012ZM48.8681 45.019C48.8681 45.671 48.3311 46.208 47.679 46.208C47.027 46.208 46.49 45.671 46.49 45.019C46.49 44.3669 47.027 43.8299 47.679 43.8299C48.3311 43.8299 48.8681 44.3669 48.8681 45.019Z" fill="white"/>
  <defs>
    <filter id="filter0_d_492_124552" x="-0.000121117" y="-9.67979e-05" width="79.4995" height="79.4995" filterUnits="userSpaceOnUse" color-interpolation-filters="sRGB">
      <feFlood flood-opacity="0" result="BackgroundImageFix"/>
      <feColorMatrix in="SourceAlpha" type="matrix" values="0 0 0 0 0 0 0 0 0 0 0 0 0 0 0 0 0 0 127 0" result="hardAlpha"/>
      <feOffset dy="2.89089"/>
      <feGaussianBlur stdDeviation="7.22723"/>
      <feColorMatrix type="matrix" values="0 0 0 0 0.090196 0 0 0 0 0.0588235 0 0 0 0 0.286275 0 0 0 0.08 0"/>
      <feBlend mode="normal" in2="BackgroundImageFix" result="effect1_dropShadow_492_124552"/>
      <feBlend mode="normal" in="SourceGraphic" in2="effect1_dropShadow_492_124552" result="shape"/>
    </filter>
  </defs>
</svg>

