<svg width="30" height="30" viewBox="0 0 30 30" fill="none" xmlns="http://www.w3.org/2000/svg">
<path d="M14.9999 29.9998C23.2841 29.9998 29.9998 23.2841 29.9998 14.9999C29.9998 6.71568 23.2841 0 14.9999 0C6.71568 0 0 6.71568 0 14.9999C0 23.2841 6.71568 29.9998 14.9999 29.9998Z" fill="#2967B0"/>
<path d="M16.1608 12.9533C16.4072 12.6766 16.6103 12.3954 16.8631 12.157C17.6411 11.4239 18.5612 11.0539 19.6355 11.0632C20.2259 11.0682 20.8095 11.1107 21.3788 11.2752C22.6807 11.6516 23.4373 12.5478 23.7982 13.8196C24.0686 14.7734 24.1187 15.7525 24.1204 16.735C24.1239 18.8071 24.1143 20.8792 24.1189 22.9511C24.1193 23.1452 24.0649 23.196 23.874 23.1944C22.8065 23.1856 21.7388 23.1854 20.6714 23.1946C20.4836 23.1963 20.443 23.1381 20.4436 22.9605C20.4495 20.9889 20.4511 19.0173 20.4446 17.0457C20.443 16.5516 20.4116 16.0577 20.273 15.5773C20.0176 14.6924 19.3841 14.2415 18.4571 14.2904C17.1914 14.3572 16.533 14.984 16.3716 16.2715C16.3331 16.5788 16.3149 16.8866 16.3151 17.1962C16.3167 19.1136 16.3132 21.0312 16.3201 22.9488C16.3207 23.1399 16.2728 23.1965 16.0775 23.1946C15.0023 23.1852 13.9271 23.1862 12.8519 23.194C12.6794 23.1952 12.6297 23.1487 12.6299 22.9744C12.6348 19.1781 12.6348 15.3816 12.6299 11.5853C12.6297 11.3975 12.6913 11.3539 12.8688 11.3552C13.8898 11.3627 14.911 11.3636 15.932 11.3546C16.1198 11.3529 16.1683 11.4136 16.1643 11.5915C16.1539 12.0452 16.1608 12.4991 16.1608 12.9529V12.9533Z" fill="#FDFDFD"/>
<path d="M10.3119 17.292C10.3119 19.17 10.3087 21.0483 10.3163 22.9263C10.3171 23.135 10.2652 23.1982 10.0491 23.1957C8.98209 23.184 7.91505 23.1867 6.84801 23.1941C6.67698 23.1953 6.62548 23.1526 6.62569 22.9757C6.63071 19.1731 6.6305 15.3704 6.62652 11.5678C6.62652 11.4104 6.66442 11.3543 6.83168 11.3553C7.91422 11.3622 8.99696 11.3645 10.0793 11.354C10.2872 11.352 10.3156 11.4328 10.315 11.6109C10.3098 13.5045 10.3119 15.398 10.3119 17.2917V17.292Z" fill="#FDFDFD"/>
<path d="M10.6062 7.58748C10.6075 8.76652 9.65011 9.72742 8.47379 9.72763C7.31255 9.72805 6.34725 8.76652 6.34327 7.60569C6.3395 6.43189 7.30396 5.46554 8.47819 5.4668C9.64404 5.46784 10.6049 6.4254 10.606 7.58727L10.6062 7.58748Z" fill="#FDFDFD"/>
</svg>
