<svg width="34" height="35" viewBox="0 0 34 35" fill="none" xmlns="http://www.w3.org/2000/svg">
<rect width="33.4495" height="33.4495" rx="16.7247" fill="white"/>
<path d="M22.6786 14.9239C23.1495 15.5158 23.4392 16.2367 23.5495 16.9816C23.5608 19.0738 23.5593 21.1633 23.545 23.2506L23.5416 23.2682C22.6183 23.2697 21.6946 23.2701 20.7706 23.2694L20.7574 23.2506C20.7276 21.6963 20.7276 20.1258 20.7582 18.5389C20.7713 17.839 20.6497 17.0645 20.004 16.6493C19.3184 16.2918 18.4651 16.3065 17.8191 16.743C17.6948 16.8417 17.5806 16.9576 17.4801 17.0806C17.2473 17.4028 17.1222 17.7869 17.0792 18.1788C17.08 19.8708 17.0755 21.5613 17.0657 23.2506L17.0623 23.2682C16.139 23.2697 15.2153 23.2701 14.2912 23.2694L14.2781 23.2506C14.2615 20.2132 14.2615 17.0285 14.2781 13.9862C14.5595 13.972 14.8484 13.966 15.1445 13.9675C15.7344 13.966 16.3251 13.9686 16.915 13.9675V15.2615C17.0062 15.2307 17.0657 15.107 17.1312 15.0361C18.5733 13.481 21.2128 13.3051 22.6786 14.9239Z" fill="#383D41"/>
<path d="M9.75781 23.2694V13.9957C9.75781 13.9938 9.78418 13.9675 9.78607 13.9675H12.6302C12.6321 13.9675 12.6584 13.9938 12.6584 13.9957V23.2413C12.6584 23.2431 12.6321 23.2694 12.6302 23.2694H9.75781Z" fill="#383D41"/>
<path d="M12.6022 10.0293C12.9322 10.5071 12.9472 11.1774 12.6775 11.6983C12.6504 11.7475 12.615 11.8015 12.5833 11.8484C12.4669 11.9999 12.3358 12.139 12.1878 12.2609C12.1215 12.3082 12.0514 12.3521 11.9806 12.3922C11.35 12.72 10.6 12.6176 10.0782 12.1484C10.0293 12.1008 9.97239 12.0329 9.92756 11.9796C9.3512 11.2753 9.44349 10.2348 10.1536 9.65418C10.8738 9.00717 12.1057 9.20671 12.6022 10.0293Z" fill="#383D41"/>
</svg>
