<svg width="81" height="80" viewBox="0 0 81 80" fill="none" xmlns="http://www.w3.org/2000/svg">
<g filter="url(#filter0_d_39_379051)">
<rect x="15" y="12" width="50.5906" height="50.5906" rx="10.8409" fill="white"/>
</g>
<g style="transform: translate(30px, 24px);" clip-path="url(#clip0_2981_19371)">
  <path d="M21.5466 9.29124C22.3183 10.2613 22.7931 11.4428 22.974 12.6637C22.9926 16.0928 22.9901 19.5175 22.9666 22.9385L22.9611 22.9674C21.4478 22.9699 19.9339 22.9705 18.4194 22.9693L18.3978 22.9385C18.349 20.391 18.349 17.8171 18.399 15.2161C18.4206 14.069 18.2212 12.7996 17.1629 12.1191C16.0392 11.5332 14.6408 11.5572 13.5819 12.2727C13.3782 12.4344 13.1911 12.6244 13.0262 12.826C12.6447 13.3541 12.4397 13.9836 12.3693 14.626C12.3705 17.3991 12.3631 20.1697 12.3471 22.9385L12.3415 22.9674C10.8282 22.9699 9.31432 22.9705 7.7998 22.9693L7.77819 22.9385C7.75102 17.9604 7.75102 12.7406 7.77819 7.75439C8.2394 7.73103 8.71296 7.72119 9.19824 7.72365C10.1651 7.72119 11.1332 7.72549 12.1001 7.72365V9.84451C12.2495 9.7941 12.3471 9.59124 12.4545 9.47505C14.818 6.92633 19.1442 6.63801 21.5466 9.29124Z" fill="#2A64C1"/>
  <path d="M0.369202 22.9693V7.76974C0.369202 7.76666 0.412421 7.72363 0.415508 7.72363H5.077C5.08009 7.72363 5.12331 7.76666 5.12331 7.76974V22.9232C5.12331 22.9262 5.08009 22.9693 5.077 22.9693H0.369202Z" fill="#2A64C1"/>
  <path d="M5.03074 1.26882C5.57159 2.052 5.59629 3.15055 5.15422 4.00443C5.10976 4.08496 5.05173 4.17348 4.99986 4.25032C4.80908 4.49868 4.59422 4.72675 4.35158 4.92654C4.24291 5.004 4.12807 5.07592 4.012 5.1417C2.97844 5.67899 1.74917 5.51116 0.894044 4.74212C0.81378 4.66405 0.72055 4.55278 0.647078 4.46548C-0.297569 3.311 -0.146302 1.6057 1.01753 0.654077C2.19803 -0.406355 4.21698 -0.079312 5.03074 1.26882Z" fill="#2A64C1"/>
</g>
<defs>
<filter id="filter0_d_39_379051" x="0.545533" y="0.436427" width="79.4996" height="79.4996" filterUnits="userSpaceOnUse" color-interpolation-filters="sRGB">
<feFlood flood-opacity="0" result="BackgroundImageFix"/>
<feColorMatrix in="SourceAlpha" type="matrix" values="0 0 0 0 0 0 0 0 0 0 0 0 0 0 0 0 0 0 127 0" result="hardAlpha"/>
<feOffset dy="2.89089"/>
<feGaussianBlur stdDeviation="7.22723"/>
<feColorMatrix type="matrix" values="0 0 0 0 0.090196 0 0 0 0 0.0588235 0 0 0 0 0.286275 0 0 0 0.08 0"/>
<feBlend mode="normal" in2="BackgroundImageFix" result="effect1_dropShadow_39_379051"/>
<feBlend mode="normal" in="SourceGraphic" in2="effect1_dropShadow_39_379051" result="shape"/>
</filter>
</defs>
</svg>
