<svg width="98" height="98" viewBox="0 0 98 98" fill="none" xmlns="http://www.w3.org/2000/svg">
  <g filter="url(#filter0_d_189_42178)">
    <circle cx="49" cy="45" r="34" fill="#B01C2E"/>
    <path d="M41.9961 24.88C39.3494 25.4184 37.1951 26.5756 35.35 28.4434C31.1792 32.6601 30.4002 39.1799 33.471 44.1066L33.9867 44.9428L33.5514 45.7563C32.9439 46.8909 31.9933 47.979 31.0648 48.6211C30.1941 49.2053 30.0339 49.4114 30.1369 49.7557C30.2745 50.1797 30.6414 50.2601 32.1994 50.2601C34.216 50.2601 35.4423 49.9165 37.0349 48.9195L37.7568 48.4728L38.8109 48.9886C40.1171 49.63 41.1486 49.951 42.5691 50.1571C44.1271 50.3977 54.8636 50.3977 56.4336 50.1684C62.2429 49.2858 66.6883 44.645 67.3417 38.7559C67.9605 33.2217 64.6032 27.6644 59.3895 25.5786C57.2007 24.7079 57.4872 24.7424 49.8447 24.7079C43.6804 24.6734 42.8669 24.6966 41.9961 24.88ZM42.6495 35.1008C43.7036 35.6047 44.3225 36.8881 44.0699 38.0227C43.8865 38.8476 43.4053 39.4664 42.6721 39.8333C40.5179 40.8988 38.2606 38.9971 38.914 36.6594C39.0629 36.0978 39.7502 35.342 40.335 35.0782C40.9765 34.7798 42.0193 34.7911 42.6495 35.1008ZM50.7619 35.2497C51.7589 35.7083 52.3086 36.5677 52.3086 37.6332C52.3086 39.6612 50.2229 40.9446 48.4355 40.028C47.5189 39.5581 47.0145 38.6987 47.0145 37.5987C47.0151 35.6964 49.0198 34.4361 50.7619 35.2497ZM58.5878 35.2265C59.321 35.4099 60.2608 36.3265 60.4442 37.037C60.7992 38.3664 60.1119 39.7987 58.8743 40.3258C57.8773 40.738 56.3877 40.3145 55.7576 39.4319C54.6117 37.8506 55.3336 35.7768 57.2358 35.1925C57.6593 35.0663 57.9916 35.0776 58.5878 35.2265Z" fill="white"/>
    <path d="M23.2499 62.5L23.7219 56.78H25.2419L26.0739 59.196C26.2019 59.564 26.3619 60.14 26.3619 60.14H26.3779C26.3779 60.14 26.5379 59.564 26.6659 59.196L27.4979 56.78H29.0179L29.4819 62.5H28.0819L27.9059 59.924C27.8739 59.492 27.9059 58.964 27.9059 58.964H27.8899C27.8899 58.964 27.6979 59.564 27.5699 59.924L26.9699 61.58H25.7699L25.1699 59.924C25.0419 59.564 24.8499 58.964 24.8499 58.964H24.8339C24.8339 58.964 24.8659 59.492 24.8339 59.924L24.6579 62.5H23.2499ZM30.6525 62.5V56.78H34.2365V57.98H32.0525V59.02H33.7965V60.22H32.0525V61.3H34.3485V62.5H30.6525ZM34.9316 61.78L35.6676 60.716C35.6676 60.716 36.3156 61.308 37.0356 61.308C37.3236 61.308 37.6356 61.196 37.6356 60.852C37.6356 60.172 35.0596 60.196 35.0596 58.436C35.0596 57.38 35.9476 56.684 37.0836 56.684C38.3156 56.684 38.9236 57.332 38.9236 57.332L38.3316 58.476C38.3316 58.476 37.7556 57.972 37.0676 57.972C36.7796 57.972 36.4596 58.1 36.4596 58.42C36.4596 59.14 39.0356 59.012 39.0356 60.82C39.0356 61.772 38.3076 62.596 37.0196 62.596C35.6756 62.596 34.9316 61.78 34.9316 61.78ZM39.5722 61.78L40.3082 60.716C40.3082 60.716 40.9562 61.308 41.6762 61.308C41.9642 61.308 42.2762 61.196 42.2762 60.852C42.2762 60.172 39.7002 60.196 39.7002 58.436C39.7002 57.38 40.5882 56.684 41.7242 56.684C42.9562 56.684 43.5642 57.332 43.5642 57.332L42.9722 58.476C42.9722 58.476 42.3962 57.972 41.7082 57.972C41.4202 57.972 41.1002 58.1 41.1002 58.42C41.1002 59.14 43.6762 59.012 43.6762 60.82C43.6762 61.772 42.9482 62.596 41.6602 62.596C40.3162 62.596 39.5722 61.78 39.5722 61.78ZM47.8528 62.5L47.5008 61.3H45.7168L45.3728 62.5H43.9328L45.8768 56.78H47.3488L49.2928 62.5H47.8528ZM46.6208 58.084H46.6048C46.6048 58.084 46.4768 58.708 46.3728 59.068L46.0448 60.18H47.1728L46.8528 59.068C46.7488 58.708 46.6208 58.084 46.6208 58.084ZM49.5185 59.628C49.5185 57.964 50.7745 56.684 52.5185 56.684C53.9825 56.684 54.7185 57.444 54.7185 57.444L54.0465 58.492C54.0465 58.492 53.4625 57.964 52.6545 57.964C51.4545 57.964 50.9665 58.732 50.9665 59.58C50.9665 60.668 51.7185 61.316 52.6065 61.316C53.2785 61.316 53.7665 60.9 53.7665 60.9V60.46H52.9585V59.268H55.0065V62.5H53.8385V62.34C53.8385 62.22 53.8465 62.1 53.8465 62.1H53.8305C53.8305 62.1 53.2785 62.596 52.3265 62.596C50.8625 62.596 49.5185 61.5 49.5185 59.628ZM56.0587 62.5V56.78H59.6427V57.98H57.4587V59.02H59.2027V60.22H57.4587V61.3H59.7547V62.5H56.0587ZM62.51 60.396V56.78H63.91V60.396C63.91 60.996 64.302 61.316 64.902 61.316C65.502 61.316 65.894 60.996 65.894 60.396V56.78H67.294V60.396C67.294 61.684 66.35 62.596 64.91 62.596C63.454 62.596 62.51 61.684 62.51 60.396ZM68.1347 61.78L68.8707 60.716C68.8707 60.716 69.5187 61.308 70.2387 61.308C70.5267 61.308 70.8387 61.196 70.8387 60.852C70.8387 60.172 68.2627 60.196 68.2627 58.436C68.2627 57.38 69.1507 56.684 70.2867 56.684C71.5187 56.684 72.1267 57.332 72.1267 57.332L71.5347 58.476C71.5347 58.476 70.9587 57.972 70.2707 57.972C69.9827 57.972 69.6627 58.1 69.6627 58.42C69.6627 59.14 72.2387 59.012 72.2387 60.82C72.2387 61.772 71.5107 62.596 70.2227 62.596C68.8787 62.596 68.1347 61.78 68.1347 61.78Z" fill="white"/>
  </g>
  <defs>
    <filter id="filter0_d_189_42178" x="0" y="0" width="98" height="98" filterUnits="userSpaceOnUse" color-interpolation-filters="sRGB">
      <feFlood flood-opacity="0" result="BackgroundImageFix"/>
      <feColorMatrix in="SourceAlpha" type="matrix" values="0 0 0 0 0 0 0 0 0 0 0 0 0 0 0 0 0 0 127 0" result="hardAlpha"/>
      <feOffset dy="4"/>
      <feGaussianBlur stdDeviation="7.5"/>
      <feComposite in2="hardAlpha" operator="out"/>
      <feColorMatrix type="matrix" values="0 0 0 0 0 0 0 0 0 0 0 0 0 0 0 0 0 0 0.2 0"/>
      <feBlend mode="normal" in2="BackgroundImageFix" result="effect1_dropShadow_189_42178"/>
      <feBlend mode="normal" in="SourceGraphic" in2="effect1_dropShadow_189_42178" result="shape"/>
    </filter>
  </defs>
</svg>
