<svg width="80" height="80" viewBox="0 0 80 80" fill="none" xmlns="http://www.w3.org/2000/svg">
<g filter="url(#filter0_d_492_117327)">
<rect x="14.4543" y="11.5635" width="50.5906" height="50.5906" rx="10.8409" fill="white"/>
</g>
<path d="M36.4308 39.238C36.6373 39.4739 36.8438 39.6804 37.0798 39.8869C37.0208 41.8633 36.1654 42.4828 35.1034 43.2792C33.835 44.2232 32.2421 45.4031 31.9766 49.1789C31.9471 49.5034 32.1831 49.7984 32.5371 49.7984H32.5666C32.8615 49.7984 33.127 49.5624 33.1565 49.2379C33.3925 46.0226 34.5724 45.1376 35.8114 44.1937C35.9589 44.0757 36.1064 43.9872 36.2539 43.8692C36.8143 45.2261 38.4072 46.1996 40.2361 46.1996C42.0355 46.1996 43.5989 45.2556 44.1594 43.9577C44.2774 44.0462 44.3954 44.1347 44.5134 44.2232C45.7523 45.1671 46.9618 46.0226 47.1683 49.2674C47.1978 49.5919 47.4632 49.8279 47.7582 49.8279H47.7877C48.1122 49.7984 48.3482 49.5329 48.3482 49.2084C48.0827 45.4621 46.4898 44.2527 45.2214 43.3087C44.1889 42.5418 43.3335 41.8928 43.245 39.9164C43.481 39.7099 43.6874 39.5034 43.8939 39.2675C47.1978 38.7365 49.8821 37.4975 49.8821 35.6391C49.8821 35.1967 49.7051 34.5182 48.9087 33.8692C48.3187 33.3678 47.9942 32.6893 48.0532 32.0108C48.0827 31.7749 48.0827 31.5684 48.0827 31.3324C48.0827 26.8191 44.5429 23.1318 40.1771 23.1318C35.8114 23.1318 32.2716 26.8191 32.2716 31.3324C32.2716 31.5684 32.2716 31.7749 32.3011 32.0108C32.3601 32.6893 32.0356 33.3678 31.4456 33.8692C30.6492 34.5477 30.4722 35.1967 30.4722 35.6391C30.4722 37.4975 33.1565 38.7365 36.4308 39.238ZM40.2361 45.0196C38.7317 45.0196 37.3453 44.0462 37.2568 42.9842C37.6993 42.4238 38.0828 41.7158 38.2007 40.6834C38.8202 41.0079 39.4692 41.1848 40.1771 41.1848C40.8851 41.1848 41.5341 41.0079 42.1535 40.6834C42.301 41.8043 42.714 42.5418 43.186 43.1022C43.0385 44.1052 41.6816 45.0196 40.2361 45.0196ZM40.1771 39.9754C38.1122 39.9754 35.6049 37.2616 35.6049 33.8987C35.6049 33.6923 35.6049 33.4563 35.6344 33.2498C38.4072 32.8073 40.8556 31.5094 42.478 29.592C43.8644 30.4769 44.7494 32.1288 44.7494 33.8987C44.7494 37.2911 42.242 39.9754 40.1771 39.9754ZM32.1831 34.7542C33.0975 34.0167 33.5695 32.9548 33.481 31.8929C33.4515 31.7159 33.4515 31.5094 33.4515 31.3029C33.4515 27.4386 36.4898 24.3118 40.1771 24.3118C43.8644 24.3118 46.9028 27.4681 46.9028 31.3324C46.9028 31.5389 46.9028 31.7159 46.8733 31.9224C46.7848 32.9843 47.2567 34.0167 48.1712 34.7837C48.4367 34.9902 48.7317 35.3147 48.7317 35.6686C48.7317 36.4061 47.3452 37.3501 44.8969 37.9105C45.5753 36.7011 45.9588 35.2852 45.9588 33.9577C45.9588 31.5684 44.6314 29.356 42.6255 28.3531C42.36 28.2351 42.065 28.2941 41.888 28.53C40.4131 30.5064 37.9353 31.8634 35.1034 32.2173C34.8379 32.2468 34.6609 32.4238 34.6019 32.6893C34.5134 33.1023 34.4839 33.5448 34.4839 33.9872C34.4839 35.3147 34.8674 36.7306 35.5459 37.94C33.0975 37.3796 31.7111 36.4356 31.7111 35.6981C31.6521 35.2852 31.9471 34.9607 32.1831 34.7542Z" fill="#426BBA"/>
<defs>
<filter id="filter0_d_492_117327" x="-0.000121117" y="-9.67979e-05" width="79.4995" height="79.4995" filterUnits="userSpaceOnUse" color-interpolation-filters="sRGB">
<feFlood flood-opacity="0" result="BackgroundImageFix"/>
<feColorMatrix in="SourceAlpha" type="matrix" values="0 0 0 0 0 0 0 0 0 0 0 0 0 0 0 0 0 0 127 0" result="hardAlpha"/>
<feOffset dy="2.89089"/>
<feGaussianBlur stdDeviation="7.22723"/>
<feColorMatrix type="matrix" values="0 0 0 0 0.090196 0 0 0 0 0.0588235 0 0 0 0 0.286275 0 0 0 0.08 0"/>
<feBlend mode="normal" in2="BackgroundImageFix" result="effect1_dropShadow_492_117327"/>
<feBlend mode="normal" in="SourceGraphic" in2="effect1_dropShadow_492_117327" result="shape"/>
</filter>
</defs>
</svg>
