<svg width="81" height="80" viewBox="0 0 81 80" fill="none" xmlns="http://www.w3.org/2000/svg">
<g filter="url(#filter0_d_3_4255)">
<rect x="15" y="12" width="50.5906" height="50.5906" rx="10.8409" fill="#4A6CB3"/>
</g>
<path d="M36.9765 39.6745C37.183 39.9105 37.3894 40.117 37.6254 40.3234C37.5664 42.2998 36.711 42.9193 35.649 43.7158C34.3806 44.6597 32.7877 45.8396 32.5222 49.6154C32.4927 49.9399 32.7287 50.2349 33.0827 50.2349H33.1122C33.4072 50.2349 33.6726 49.9989 33.7021 49.6744C33.9381 46.4591 35.1181 45.5742 36.357 44.6302C36.5045 44.5122 36.652 44.4237 36.7995 44.3057C37.3599 45.6626 38.9529 46.6361 40.7818 46.6361C42.5812 46.6361 44.1446 45.6921 44.705 44.3942C44.823 44.4827 44.941 44.5712 45.059 44.6597C46.298 45.6037 47.5074 46.4591 47.7139 49.7039C47.7434 50.0284 48.0089 50.2644 48.3038 50.2644H48.3333C48.6578 50.2349 48.8938 49.9694 48.8938 49.6449C48.6283 45.8986 47.0354 44.6892 45.767 43.7453C44.7345 42.9783 43.8791 42.3293 43.7906 40.3529C44.0266 40.1465 44.2331 39.94 44.4396 39.704C47.7434 39.173 50.4277 37.9341 50.4277 36.0757C50.4277 35.6332 50.2507 34.9547 49.4543 34.3058C48.8643 33.8043 48.5398 33.1258 48.5988 32.4474C48.6283 32.2114 48.6283 32.0049 48.6283 31.7689C48.6283 27.2557 45.0885 23.5684 40.7228 23.5684C36.357 23.5684 32.8172 27.2557 32.8172 31.7689C32.8172 32.0049 32.8172 32.2114 32.8467 32.4474C32.9057 33.1258 32.5812 33.8043 31.9912 34.3058C31.1948 34.9842 31.0178 35.6332 31.0178 36.0757C31.0178 37.9341 33.7021 39.173 36.9765 39.6745ZM40.7818 45.4562C39.2773 45.4562 37.8909 44.4827 37.8024 43.4208C38.2449 42.8603 38.6284 42.1523 38.7464 41.1199C39.3658 41.4444 40.0148 41.6214 40.7228 41.6214C41.4307 41.6214 42.0797 41.4444 42.6992 41.1199C42.8466 42.2408 43.2596 42.9783 43.7316 43.5388C43.5841 44.5417 42.2272 45.4562 40.7818 45.4562ZM40.7228 40.4119C38.6579 40.4119 36.1505 37.6981 36.1505 34.3353C36.1505 34.1288 36.1505 33.8928 36.18 33.6863C38.9529 33.2438 41.4012 31.9459 43.0236 30.0285C44.4101 30.9135 45.295 32.5654 45.295 34.3353C45.295 37.7276 42.7876 40.4119 40.7228 40.4119ZM32.7287 35.1907C33.6431 34.4533 34.1151 33.3913 34.0266 32.3294C33.9971 32.1524 33.9971 31.9459 33.9971 31.7394C33.9971 27.8751 37.0355 24.7483 40.7228 24.7483C44.4101 24.7483 47.4484 27.9046 47.4484 31.7689C47.4484 31.9754 47.4484 32.1524 47.4189 32.3589C47.3304 33.4208 47.8024 34.4533 48.7168 35.2202C48.9823 35.4267 49.2773 35.7512 49.2773 36.1052C49.2773 36.8426 47.8909 37.7866 45.4425 38.3471C46.121 37.1376 46.5044 35.7217 46.5044 34.3943C46.5044 32.0049 45.177 29.7925 43.1711 28.7896C42.9056 28.6716 42.6107 28.7306 42.4337 28.9666C40.9587 30.943 38.4809 32.2999 35.649 32.6539C35.3836 32.6834 35.2066 32.8604 35.1476 33.1258C35.0591 33.5388 35.0296 33.9813 35.0296 34.4238C35.0296 35.7512 35.4131 37.1671 36.0915 38.3765C33.6431 37.8161 32.2567 36.8721 32.2567 36.1347C32.1977 35.7217 32.4927 35.3972 32.7287 35.1907Z" fill="white"/>
<defs>
<filter id="filter0_d_3_4255" x="0.545533" y="0.436427" width="79.4996" height="79.4995" filterUnits="userSpaceOnUse" color-interpolation-filters="sRGB">
<feFlood flood-opacity="0" result="BackgroundImageFix"/>
<feColorMatrix in="SourceAlpha" type="matrix" values="0 0 0 0 0 0 0 0 0 0 0 0 0 0 0 0 0 0 127 0" result="hardAlpha"/>
<feOffset dy="2.89089"/>
<feGaussianBlur stdDeviation="7.22723"/>
<feColorMatrix type="matrix" values="0 0 0 0 0.090196 0 0 0 0 0.0588235 0 0 0 0 0.286275 0 0 0 0.08 0"/>
<feBlend mode="normal" in2="BackgroundImageFix" result="effect1_dropShadow_3_4255"/>
<feBlend mode="normal" in="SourceGraphic" in2="effect1_dropShadow_3_4255" result="shape"/>
</filter>
</defs>
</svg>
