<svg width="30" height="30" viewBox="0 0 30 30" fill="none" xmlns="http://www.w3.org/2000/svg">
<path d="M6.02038 0.301308C3.38642 1.4808 1.4467 3.16806 0.875059 4.7553C0.745763 5.11288 0.725379 5.31293 0.732077 6.17093C0.738774 8.02979 1.16772 10.0887 2.03202 12.3908C3.20937 15.5218 4.94496 18.3458 7.45661 21.2199C11.9351 26.3385 17.9517 29.7131 23.1174 29.9847C24.0839 30.0419 24.5329 29.9489 25.2886 29.5344C26.5478 28.848 28.0996 26.6677 29.0321 24.2796C29.3044 23.5932 29.3247 23.4504 29.1818 23.1644C29.0659 22.9282 22.784 18.2384 22.3961 18.0956C22.1171 18.0026 21.8041 18.0313 21.5044 18.1885C21.4022 18.2457 20.8442 18.9034 20.2589 19.647C19.0679 21.1697 18.9045 21.3055 18.2443 21.3128C17.8835 21.3128 17.7816 21.2771 16.9444 20.791C13.1736 18.6247 11.5335 16.9017 9.47118 12.9411C9.00845 12.0546 8.97438 11.9543 8.97438 11.5683C8.98108 10.8819 9.13105 10.6818 10.5603 9.45216C11.2545 8.85874 11.8739 8.26533 11.9488 8.14389C12.0917 7.8793 12.1121 7.31464 11.9895 7.05708C11.9418 6.96409 10.887 5.37716 9.64823 3.53971C8.1986 1.37343 7.33401 0.151117 7.21171 0.0865765C6.93244 -0.0633068 6.77577 -0.0348606 6.02038 0.301308Z" fill="#BA202E"/>
</svg>
