<svg width="29" height="30" viewBox="0 0 29 30" fill="none" xmlns="http://www.w3.org/2000/svg">
<path d="M5.28943 0.301308C2.65546 1.4808 0.71574 3.16806 0.144102 4.7553C0.0148063 5.11288 -0.00557818 5.31293 0.00111957 6.17093C0.00781731 8.02979 0.436764 10.0887 1.30106 12.3908C2.47841 15.5218 4.214 18.3458 6.72565 21.2199C11.2041 26.3385 17.2207 29.7131 22.3864 29.9847C23.3529 30.0419 23.802 29.9489 24.5577 29.5344C25.8168 28.848 27.3687 26.6677 28.3011 24.2796C28.5734 23.5932 28.5938 23.4504 28.4508 23.1644C28.3349 22.9282 22.053 18.2384 21.6651 18.0956C21.3861 18.0026 21.0731 18.0313 20.7734 18.1885C20.6712 18.2457 20.1133 18.9034 19.528 19.647C18.3369 21.1697 18.1736 21.3055 17.5134 21.3128C17.1526 21.3128 17.0507 21.2771 16.2134 20.791C12.4426 18.6247 10.8025 16.9017 8.74022 12.9411C8.27749 12.0546 8.24342 11.9543 8.24342 11.5683C8.25012 10.8819 8.40009 10.6818 9.82933 9.45216C10.5236 8.85874 11.143 8.26533 11.2178 8.14389C11.3608 7.8793 11.3812 7.31464 11.2586 7.05708C11.2108 6.96409 10.1561 5.37716 8.91727 3.53971C7.46765 1.37343 6.60306 0.151117 6.48075 0.0865765C6.20148 -0.0633068 6.04481 -0.0348606 5.28943 0.301308Z" fill="#4A6CB3"/>
</svg>
