<svg width="15" height="16" viewBox="0 0 15 16" fill="none" xmlns="http://www.w3.org/2000/svg">
<path d="M2.65077 0.196256C1.33077 0.787353 0.358689 1.63291 0.0722158 2.42835C0.00742007 2.60755 -0.00279547 2.7078 0.000561064 3.13779C0.0039176 4.06934 0.218882 5.10116 0.652021 6.25484C1.24204 7.82394 2.11182 9.23913 3.37052 10.6795C5.61488 13.2447 8.63007 14.9358 11.2188 15.0719C11.7032 15.1006 11.9282 15.054 12.3069 14.8463C12.938 14.5023 13.7157 13.4096 14.183 12.2129C14.3194 11.8689 14.3296 11.7973 14.258 11.654C14.1999 11.5356 11.0517 9.18533 10.8574 9.11374C10.7175 9.06714 10.5607 9.08155 10.4105 9.16034C10.3593 9.18901 10.0797 9.51859 9.78633 9.89124C9.18945 10.6543 9.10758 10.7224 8.77674 10.7261C8.59592 10.7261 8.54485 10.7081 8.12528 10.4646C6.23555 9.37894 5.41363 8.51544 4.38011 6.53061C4.14822 6.08637 4.13115 6.03609 4.13115 5.84263C4.1345 5.49864 4.20966 5.39839 4.92591 4.78215C5.27383 4.48477 5.58423 4.18738 5.62174 4.12652C5.69339 3.99393 5.70361 3.71095 5.64217 3.58187C5.61824 3.53527 5.08965 2.73999 4.46884 1.81916C3.74237 0.733545 3.30908 0.120989 3.24779 0.088644C3.10784 0.0135307 3.02933 0.0277872 2.65077 0.196256Z" fill="white"/>
</svg>
