<svg width="100" height="49" viewBox="0 0 100 49" fill="none" xmlns="http://www.w3.org/2000/svg" aria-hidden="true"><path d="M90.702 24.203C90.702 14.5062 82.964 6.61636 73.326 6.37202L72.8654 6.36638C72.8021 6.36638 72.8638 6.36714 72.7112 6.36843L69.5369 6.39507V6.36638H27.2288L27.0393 6.3674C17.2333 6.41968 9.29997 14.3848 9.29997 24.203C9.29997 34.0212 17.2332 41.9858 27.0393 42.0381L27.3241 42.0396H69.5369V42.0103L72.7112 42.0371C72.7627 42.0375 72.815 42.0387 72.8352 42.0391C72.8639 42.0396 72.8679 42.0396 72.8654 42.0396L73.326 42.034C82.964 41.7896 90.702 33.8999 90.702 24.203ZM93.8496 24.203C93.8496 35.7922 84.4546 45.1872 72.8654 45.1873C72.8051 45.1873 72.7447 45.1852 72.6846 45.1847V45.1873H27.0223V45.1856C15.4856 45.1241 6.15234 35.7542 6.15234 24.203C6.15234 12.6519 15.4856 3.28127 27.0223 3.21977V3.21875H72.6846V3.22079C72.7447 3.22029 72.8051 3.21875 72.8654 3.21875C84.4546 3.21881 93.8496 12.6138 93.8496 24.203Z" fill="#426BBA"></path><path d="M72.6853 3.22079C72.7454 3.22029 72.8058 3.21875 72.8661 3.21875C84.4553 3.21881 93.8503 12.6138 93.8503 24.203C93.8503 35.7922 84.4553 45.1872 72.8661 45.1873C72.8058 45.1873 72.7454 45.1852 72.6853 45.1847V45.1873H44.5L55.1811 3.21875H72.6853V3.22079Z" fill="#426BBA"></path><path d="M40.1657 14.988C40.7234 14.3213 41.7162 14.2328 42.3829 14.7905C43.0496 15.3482 43.1376 16.3412 42.5799 17.0078L28.6973 33.6048L20.5706 25.2528C19.9647 24.6298 19.9784 23.6335 20.6012 23.0274C21.2242 22.4213 22.2209 22.4349 22.8271 23.0579L28.5205 28.9096L40.1657 14.988Z" fill="#426BBA"></path><path d="M78.0117 31.0126C78.6263 31.6272 78.6263 32.6237 78.0117 33.2383C77.397 33.8529 76.4006 33.8529 75.7859 33.2383L59.9375 17.3899C59.3229 16.7752 59.3229 15.7788 59.9375 15.1641C60.5521 14.5495 61.5486 14.5495 62.1632 15.1641L78.0117 31.0126Z" fill="white"></path><path d="M75.7859 15.1641C76.4005 14.5494 77.397 14.5494 78.0116 15.1641C78.6263 15.7787 78.6263 16.7753 78.0116 17.3899L62.1632 33.2383C61.5486 33.8528 60.5521 33.8528 59.9375 33.2383C59.3229 32.6237 59.3229 31.6271 59.9375 31.0126L75.7859 15.1641Z" fill="white"></path></svg>