<svg width="35" height="35" viewBox="0 0 35 35" fill="none" xmlns="http://www.w3.org/2000/svg">
<path d="M18.0376 29.9998C20.6777 30.0067 23.247 29.1458 25.3491 27.5495C27.4517 25.953 28.9712 23.7097 29.6734 21.165C30.3755 18.6201 30.2217 15.915 29.2356 13.4661C28.2494 11.0174 26.4854 8.96076 24.2153 7.61294C21.9452 6.26513 19.2951 5.70089 16.6731 6.00724C14.051 6.31358 11.6022 7.47361 9.70389 9.30838V5.92589C9.70389 5.59514 9.52737 5.28958 9.24099 5.1241C8.95442 4.95863 8.60156 4.95863 8.315 5.1241C8.02843 5.28957 7.8521 5.59514 7.8521 5.92589V11.4814C7.85191 11.676 7.91314 11.8655 8.02688 12.0232C8.14042 12.1809 8.30085 12.2987 8.48532 12.3602L14.0409 14.212V14.2121C14.3552 14.3166 14.7014 14.2455 14.9491 14.0257C15.1967 13.8058 15.3083 13.4704 15.2416 13.1461C15.175 12.8215 14.9403 12.5574 14.6261 12.4528L10.5243 11.0879C12.1732 9.29231 14.4139 8.15045 16.8358 7.87183C19.2579 7.593 21.6993 8.19599 23.7128 9.57014C25.7266 10.9445 27.1781 12.998 27.8016 15.3549C28.4249 17.7118 28.1787 20.2144 27.1076 22.4045C26.0366 24.5946 24.2128 26.3259 21.9697 27.2811C19.7267 28.2363 17.2146 28.3516 14.8933 27.606C12.5722 26.8604 10.5972 25.3037 9.32978 23.221C8.06257 21.1382 7.58787 18.6687 7.99263 16.2646C8.03603 16.0215 7.98023 15.7709 7.83801 15.569C7.69578 15.3671 7.47877 15.2303 7.23523 15.1893C6.99167 15.148 6.74172 15.2059 6.54118 15.3501C6.34044 15.4941 6.20559 15.7124 6.16664 15.9564C6.0558 16.6194 6.00019 17.2905 6 17.9628C6.00368 21.1541 7.27302 24.2138 9.52976 26.4702C11.7863 28.727 14.8457 29.9963 18.0372 30L18.0376 29.9998Z" fill="white"/>
</svg>
