<svg width="207" height="34" viewBox="0 0 207 34" fill="none" xmlns="http://www.w3.org/2000/svg">
<path d="M10.0945 27.8813C10.5802 27.1527 11.2393 26.9099 12.3264 27.1874C13.2746 27.4303 14.6045 28.1819 14.9283 28.5057C15.4024 28.9799 15.5759 29.4771 15.4834 30.2172C15.414 30.8417 15.2636 31.339 14.9745 31.9056C14.5467 32.7498 13.9453 33.2586 13.159 33.2817C12.3726 33.3049 10.7305 33.1083 9.78224 32.692C8.84555 32.2756 8.72991 31.2811 9.04214 30.2057C9.34281 29.2227 9.6666 28.4942 10.0829 27.8581" fill="#B01C2E"/>
<path d="M16.847 0.104077C14.4532 0.508822 8.64805 2.54411 5.00535 4.81068C0.819133 7.41261 -0.47605 9.94515 0.148413 13.1369C0.680363 15.8891 1.84834 18.6183 3.82581 21.7868C5.9883 25.2792 9.24938 27.2914 13.3315 25.4411C17.4137 23.6024 23.2535 19.3005 25.3813 16.6755C27.8676 13.611 27.8676 10.8009 26.9425 7.99082C26.214 5.75894 25.1038 4.13996 23.5658 2.4516C22.2822 1.04077 20.3394 0 18.1075 0C17.7143 0 17.2865 0.0346924 16.8586 0.104077" fill="url(#paint0_radial_3218_16075)"/>
<mask id="mask0_3218_16075" style="mask-type:luminance" maskUnits="userSpaceOnUse" x="0" y="0" width="28" height="27">
<path d="M16.847 0.104077C14.4532 0.508822 8.64805 2.54411 5.00535 4.81068C0.819133 7.41261 -0.47605 9.94515 0.148413 13.1369C0.680363 15.8891 1.84834 18.6183 3.82581 21.7868C5.9883 25.2792 9.24938 27.2914 13.3315 25.4411C17.4137 23.6024 23.2535 19.3005 25.3813 16.6755C27.8676 13.611 27.8676 10.8009 26.9425 7.99082C26.214 5.75894 25.1038 4.13996 23.5658 2.4516C22.2822 1.04077 20.3394 0 18.1075 0C17.7143 0 17.2865 0.0346924 16.8586 0.104077" fill="white"/>
</mask>
<g mask="url(#mask0_3218_16075)">
<path d="M27.8904 0.000366211H-0.464844V27.2917H27.8904V0.000366211Z" fill="url(#paint1_radial_3218_16075)"/>
</g>
<path d="M44.7163 25.9117C39.2002 25.9117 37.2423 21.332 37.2423 17.3992C37.2423 13.4664 39.2002 8.88664 44.7163 8.88664C50.2325 8.88664 52.1903 13.4664 52.1903 17.3992C52.1733 21.315 50.2154 25.9117 44.7163 25.9117ZM44.7163 7.98431C38.6384 7.98431 35.8633 12.8535 35.8633 17.3822C35.8633 21.9108 38.6384 26.78 44.7163 26.78C50.7943 26.78 53.5694 21.9108 53.5694 17.3822C53.5694 12.8535 50.7943 7.98431 44.7163 7.98431Z" fill="#426BBA"/>
<path d="M61.6233 13.058H59.6484V9.41462C59.6484 8.58039 59.2228 8.58038 59.0525 8.58038C58.8823 8.58038 58.4566 8.58039 58.4566 9.41462V13.058H56.4817C56.1923 13.058 56.0391 13.1772 56.0391 13.4155C56.0391 13.6539 56.1923 13.773 56.4817 13.773H58.4566V25.997C58.4566 26.7972 58.8823 26.7972 59.0525 26.7972C59.2228 26.7972 59.6484 26.7972 59.6484 25.997V13.773H61.6233C61.9127 13.773 62.0659 13.6539 62.0659 13.4155C62.0659 13.1772 61.9127 13.058 61.6233 13.058Z" fill="#426BBA"/>
<path d="M71.6483 20.6513C70.8822 20.3789 68.6519 19.5787 67.8006 19.2553C65.979 18.6083 65.2299 17.6209 65.2299 16.2418C65.2299 14.1648 67.8517 12.8879 70.2693 12.8879C71.7845 12.8879 73.4189 13.1943 74.832 13.9945C75.496 14.3691 74.9512 15.1352 74.3553 14.8117C73.2827 14.2499 72.4996 13.6029 70.3714 13.6029C68.5157 13.6029 66.5748 14.4542 66.5748 16.1056C66.5748 17.059 67.3239 17.7571 68.4646 18.1657C68.8222 18.2848 71.3929 19.2042 71.8356 19.3574C74.2532 20.2087 75.6322 21.1621 75.6322 23.0519C75.6322 25.2821 73.4019 26.7974 70.065 26.7974C67.2558 26.7974 65.4171 25.5545 64.617 24.7714C63.987 24.1415 64.7702 23.4775 65.298 24.0053C65.8598 24.5671 67.341 26.0823 70.1501 26.0823C72.4825 26.0823 74.2872 24.8225 74.2872 23.154C74.3213 21.5536 72.9082 21.111 71.6483 20.6513Z" fill="#426BBA"/>
<path d="M90.7359 12.8879C90.5486 12.8879 90.14 12.8879 90.14 13.6881V21.8431C90.14 22.9497 90.0549 23.8691 89.5441 24.5501C88.8461 25.5205 87.4501 26.0653 85.5773 26.0653C83.7045 26.0653 82.3936 25.5205 81.6786 24.533C81.1678 23.835 81.0316 22.9327 81.0316 21.8431V13.6881C81.0316 12.8879 80.606 12.8879 80.4357 12.8879C80.2484 12.8879 79.8398 12.8879 79.8398 13.6881V22.3198C79.8398 25.0438 82.1042 26.7974 85.5943 26.7974C89.0845 26.7974 91.3488 25.0438 91.3488 22.3198V13.6881C91.3318 12.8879 90.9232 12.8879 90.7359 12.8879Z" fill="#426BBA"/>
<path d="M105.616 26.5249C106.245 27.0016 106.484 26.6952 106.586 26.559C106.705 26.4228 106.961 26.0993 106.348 25.6056L98.5331 19.3233C98.5331 19.3233 106.177 13.6199 106.16 13.6199C106.569 13.3134 106.433 13.0751 106.365 12.99C106.297 12.8878 106.109 12.7005 105.701 12.99L97.1371 19.2893V7.28657C97.1371 6.48639 96.7114 6.48639 96.5412 6.48639C96.3709 6.48639 95.9453 6.48639 95.9453 7.28657V25.9631C95.9453 26.7633 96.3709 26.7633 96.5412 26.7633C96.7114 26.7633 97.1371 26.7633 97.1371 25.9631V19.6808L105.616 26.5079" fill="#426BBA"/>
<path d="M115.267 26.0653C111.436 26.0653 109.972 22.7114 109.972 19.8341C109.972 16.7356 111.675 13.6029 115.267 13.6029C119.081 13.6029 120.443 16.9569 120.443 19.8341C120.443 22.7114 119.081 26.0653 115.267 26.0653ZM121.038 12.8879C120.851 12.8879 120.443 12.9219 120.443 13.6881V16.5313C119.796 14.6925 118.059 12.8879 115.216 12.8879C110.738 12.8879 108.695 16.4972 108.695 19.8511C108.695 23.2051 110.432 26.7974 115.284 26.7974C118.28 26.7974 119.847 24.9246 120.477 23.171V25.9972C120.477 26.7974 120.885 26.7974 121.056 26.7974C121.226 26.7974 121.651 26.7974 121.651 25.9972V13.6881C121.634 12.9219 121.209 12.8879 121.038 12.8879Z" fill="#426BBA"/>
<path d="M137.555 12.5646H139.359C140.262 12.5646 140.909 13.1775 140.909 14.1139C140.909 15.0503 140.262 15.6802 139.359 15.6802H138.253V17.5019H137.555V12.5646ZM139.24 15.0673C139.836 15.0673 140.194 14.6928 140.194 14.0969C140.194 13.501 139.836 13.1605 139.24 13.1605H138.236V15.0673H139.24Z" fill="#426BBA"/>
<path d="M144.092 16.0888H142.236L141.742 17.5019H141.027L142.798 12.5646H143.53L145.301 17.5019H144.586L144.092 16.0888ZM143.155 13.2456C143.155 13.2456 143.036 13.6883 142.951 13.9437L142.406 15.51H143.905L143.36 13.9437C143.275 13.6883 143.173 13.2456 143.173 13.2456H143.155Z" fill="#426BBA"/>
<path d="M146.818 13.1774H145.133V12.5815H149.202V13.1774H147.516V17.5018H146.818V13.1774Z" fill="#426BBA"/>
<path d="M149.934 12.5646H150.632V17.5019H149.934V12.5646Z" fill="#426BBA"/>
<path d="M151.992 12.5644H154.852V13.1603H152.673V14.7096H154.444V15.3055H152.673V16.8888H154.972V17.4847H151.992V12.5474V12.5644Z" fill="#426BBA"/>
<path d="M156.027 12.5646H156.708L158.905 15.7654C159.092 16.0378 159.313 16.4804 159.313 16.4804C159.313 16.4804 159.262 16.0378 159.262 15.7654V12.5646H159.96V17.5019H159.279L157.083 14.3012C156.896 14.0288 156.674 13.5861 156.674 13.5861C156.674 13.5861 156.725 14.0288 156.725 14.3012V17.5019H156.027V12.5646Z" fill="#426BBA"/>
<path d="M162.393 13.1774H160.707V12.5815H164.776V13.1774H163.091V17.5018H162.393V13.1774Z" fill="#426BBA"/>
<path d="M169.783 16.0888H167.928L167.434 17.5019H166.719L168.489 12.5646H169.221L170.992 17.5019H170.277L169.783 16.0888ZM168.847 13.2456C168.847 13.2456 168.728 13.6883 168.643 13.9437L168.098 15.51H169.596L169.051 13.9437C168.966 13.6883 168.864 13.2456 168.864 13.2456H168.847Z" fill="#426BBA"/>
<path d="M171.774 16.4123C171.774 16.4123 172.302 16.9401 173.034 16.9401C173.494 16.9401 173.886 16.6847 173.886 16.208C173.886 15.1354 171.502 15.3738 171.502 13.8585C171.502 13.0924 172.166 12.4795 173.102 12.4795C174.039 12.4795 174.498 12.9732 174.498 12.9732L174.192 13.5521C174.192 13.5521 173.732 13.1264 173.102 13.1264C172.575 13.1264 172.2 13.4499 172.2 13.8415C172.2 14.863 174.584 14.5906 174.584 16.191C174.584 16.9571 173.988 17.587 173.017 17.587C171.962 17.587 171.383 16.9401 171.383 16.9401L171.774 16.4123Z" fill="#426BBA"/>
<path d="M175.606 16.4123C175.606 16.4123 176.134 16.9401 176.866 16.9401C177.326 16.9401 177.718 16.6847 177.718 16.208C177.718 15.1354 175.334 15.3738 175.334 13.8585C175.334 13.0924 175.998 12.4795 176.934 12.4795C177.871 12.4795 178.33 12.9732 178.33 12.9732L178.024 13.5521C178.024 13.5521 177.564 13.1264 176.934 13.1264C176.407 13.1264 176.032 13.4499 176.032 13.8415C176.032 14.863 178.416 14.5906 178.416 16.191C178.416 16.9571 177.837 17.587 176.849 17.587C175.794 17.587 175.215 16.9401 175.215 16.9401L175.606 16.4123Z" fill="#426BBA"/>
<path d="M179.438 12.5646H180.136V17.5019H179.438V12.5646Z" fill="#426BBA"/>
<path d="M181.513 16.4123C181.513 16.4123 182.04 16.9401 182.773 16.9401C183.232 16.9401 183.624 16.6847 183.624 16.208C183.624 15.1354 181.24 15.3738 181.24 13.8585C181.24 13.0924 181.904 12.4795 182.841 12.4795C183.777 12.4795 184.237 12.9732 184.237 12.9732L183.93 13.5521C183.93 13.5521 183.471 13.1264 182.841 13.1264C182.313 13.1264 181.938 13.4499 181.938 13.8415C181.938 14.863 184.322 14.5906 184.322 16.191C184.322 16.9571 183.726 17.587 182.756 17.587C181.7 17.587 181.121 16.9401 181.121 16.9401L181.513 16.4123Z" fill="#426BBA"/>
<path d="M186.4 13.1774H184.715V12.5815H188.784V13.1774H187.098V17.5018H186.4V13.1774Z" fill="#426BBA"/>
<path d="M191.662 16.0888H189.806L189.313 17.5019H188.598L190.368 12.5646H191.1L192.871 17.5019H192.156L191.662 16.0888ZM190.726 13.2456C190.726 13.2456 190.607 13.6883 190.521 13.9437L189.977 15.51H191.475L190.93 13.9437C190.845 13.6883 190.743 13.2456 190.743 13.2456H190.726Z" fill="#426BBA"/>
<path d="M193.637 12.5646H194.318L196.514 15.7654C196.701 16.0378 196.923 16.4804 196.923 16.4804C196.923 16.4804 196.871 16.0378 196.871 15.7654V12.5646H197.57V17.5019H196.889L194.692 14.3012C194.505 14.0288 194.284 13.5861 194.284 13.5861C194.284 13.5861 194.335 14.0288 194.335 14.3012V17.5019H193.637V12.5646Z" fill="#426BBA"/>
<path d="M201.128 12.4795C202.319 12.4795 202.915 13.1264 202.915 13.1264L202.575 13.6372C202.575 13.6372 201.996 13.0924 201.145 13.0924C200.038 13.0924 199.323 13.9266 199.323 14.9822C199.323 16.0377 200.055 16.9401 201.162 16.9401C202.098 16.9401 202.677 16.2931 202.677 16.2931L203.052 16.7868C203.052 16.7868 202.371 17.57 201.145 17.57C199.664 17.57 198.625 16.4463 198.625 14.9992C198.625 13.5521 199.698 12.4795 201.128 12.4795Z" fill="#426BBA"/>
<path d="M204.02 12.5644H206.88V13.1603H204.701V14.7096H206.471V15.3055H204.701V16.8888H206.999V17.4847H204.02V12.5474V12.5644Z" fill="#426BBA"/>
<path d="M137.555 19.9197H141.436V20.9753H138.78V22.8821H141.011V23.9377H138.78V26.6617H137.555V19.9197Z" fill="#426BBA"/>
<path d="M146.475 19.8004C148.466 19.8004 149.965 21.3156 149.965 23.2395C149.965 25.1633 148.466 26.7807 146.475 26.7807C144.483 26.7807 142.984 25.2314 142.984 23.2395C142.984 21.2475 144.483 19.8004 146.475 19.8004ZM146.475 25.657C147.717 25.657 148.705 24.6355 148.705 23.2395C148.705 21.8434 147.717 20.9241 146.475 20.9241C145.232 20.9241 144.244 21.9115 144.244 23.2395C144.244 24.5674 145.232 25.657 146.475 25.657Z" fill="#426BBA"/>
<path d="M151.977 19.9195H153.202V24.2439C153.202 25.1462 153.798 25.6569 154.701 25.6569C155.603 25.6569 156.199 25.1462 156.199 24.2268V19.9025H157.425V24.2268C157.425 25.7421 156.335 26.7636 154.701 26.7636C153.066 26.7636 151.977 25.7421 151.977 24.2268V19.9025V19.9195Z" fill="#426BBA"/>
<path d="M159.91 19.9197H161.136L163.69 23.8185C163.945 24.2101 164.252 24.857 164.252 24.857H164.269C164.269 24.857 164.2 24.2101 164.2 23.8185V19.9197H165.409V26.6617H164.2L161.647 22.78C161.391 22.3884 161.085 21.7414 161.085 21.7414H161.068C161.068 21.7414 161.136 22.3884 161.136 22.78V26.6617H159.91V19.9197Z" fill="#426BBA"/>
<path d="M167.996 19.9197H170.294C172.372 19.9197 173.734 21.1626 173.734 23.2907C173.734 25.4188 172.372 26.6787 170.294 26.6787H167.996V19.9368V19.9197ZM170.226 25.6061C171.588 25.6061 172.474 24.8059 172.474 23.2737C172.474 21.7414 171.588 20.9583 170.226 20.9583H169.222V25.6061H170.226Z" fill="#426BBA"/>
<path d="M179.216 24.942H176.849L176.287 26.6786H175.027L177.411 19.9366H178.688L181.071 26.6786H179.811L179.233 24.942H179.216ZM178.024 21.0944C178.024 21.0944 177.871 21.7583 177.734 22.1329L177.138 23.9375H178.909L178.313 22.1329C178.194 21.7583 178.041 21.0944 178.041 21.0944H178.024Z" fill="#426BBA"/>
<path d="M183.795 20.9753H181.582V19.9197H187.234V20.9753H185.021V26.6787H183.795V20.9753Z" fill="#426BBA"/>
<path d="M188.988 19.9197H190.214V26.6617H188.988V19.9197Z" fill="#426BBA"/>
<path d="M195.83 19.8004C197.822 19.8004 199.32 21.3156 199.32 23.2395C199.32 25.1633 197.822 26.7807 195.83 26.7807C193.838 26.7807 192.34 25.2314 192.34 23.2395C192.34 21.2475 193.838 19.8004 195.83 19.8004ZM195.83 25.657C197.073 25.657 198.06 24.6355 198.06 23.2395C198.06 21.8434 197.073 20.9241 195.83 20.9241C194.587 20.9241 193.6 21.9115 193.6 23.2395C193.6 24.5674 194.587 25.657 195.83 25.657Z" fill="#426BBA"/>
<path d="M201.418 19.9197H202.644L205.198 23.8185C205.453 24.2101 205.759 24.857 205.759 24.857H205.776C205.776 24.857 205.708 24.2101 205.708 23.8185V19.9197H206.917V26.6617H205.708L203.155 22.78C202.899 22.3884 202.593 21.7414 202.593 21.7414H202.576C202.576 21.7414 202.644 22.3884 202.644 22.78V26.6617H201.418V19.9197Z" fill="#426BBA"/>
<path d="M130.267 12.5473H129.875V26.6611H130.267V12.5473Z" fill="#B01C2E"/>
<defs>
<radialGradient id="paint0_radial_3218_16075" cx="0" cy="0" r="1" gradientUnits="userSpaceOnUse" gradientTransform="translate(8.76369 1.34144) scale(26.8982)">
<stop stop-color="#B4C8E7"/>
<stop offset="0.19" stop-color="#B0C4E5"/>
<stop offset="0.38" stop-color="#A3BADF"/>
<stop offset="0.57" stop-color="#8FA8D5"/>
<stop offset="0.77" stop-color="#7290C7"/>
<stop offset="0.97" stop-color="#4D71B5"/>
<stop offset="1" stop-color="#466BB2"/>
</radialGradient>
<radialGradient id="paint1_radial_3218_16075" cx="0" cy="0" r="1" gradientUnits="userSpaceOnUse" gradientTransform="translate(10.0197 26.2324) scale(27.938)">
<stop stop-color="#B4C8E7"/>
<stop offset="0.19" stop-color="#B0C4E5"/>
<stop offset="0.38" stop-color="#A3BADF"/>
<stop offset="0.57" stop-color="#8FA8D5"/>
<stop offset="0.77" stop-color="#7290C7"/>
<stop offset="0.97" stop-color="#4D71B5"/>
<stop offset="1" stop-color="#466BB2"/>
</radialGradient>
</defs>
</svg>
