<svg aria-hidden="true" focusable="false" xmlns="http://www.w3.org/2000/svg" width="26" height="27" viewBox="0 0 26 27" fill="none">
<path fill-rule="evenodd" clip-rule="evenodd" d="M23.6257 7.16801L22.1959 8.66235C22.0652 8.79891 22.0298 9.00013 22.1046 9.17353C22.6744 10.4933 22.9912 11.9577 22.9912 13.5C22.9912 19.3167 18.4818 24.0225 12.9168 24.0225C7.35174 24.0225 2.84902 19.3167 2.84902 13.5C2.84902 7.6833 7.35821 2.97065 12.9168 2.97065C14.391 2.97065 15.7913 3.30138 17.0532 3.89622C17.2367 3.98262 17.4548 3.94324 17.5942 3.7959L19.0323 2.27668C19.2428 2.0543 19.188 1.69164 18.9194 1.54411C17.1259 0.558198 15.0835 0 12.9168 0C5.78423 0 0 6.04554 0 13.5C0 20.9545 5.78423 27 12.9168 27C20.0493 27 25.8333 20.9545 25.8333 13.5C25.8333 11.258 25.3103 9.14374 24.3843 7.28263C24.2398 6.99187 23.85 6.93329 23.6255 7.16781L23.6257 7.16801Z" fill="#426BBA"></path>
<path fill-rule="evenodd" clip-rule="evenodd" d="M16.3665 8.05304V6.43468C16.3665 6.20074 16.2301 5.98718 16.0166 5.89215C15.065 5.46797 14.0176 5.23364 12.9173 5.23364C8.54754 5.23364 5.00781 8.93315 5.00781 13.5002C5.00781 18.0673 8.54754 21.7668 12.9173 21.7668C17.287 21.7668 20.8265 18.0675 20.8265 13.5002C20.8265 12.3546 20.604 11.2639 20.2014 10.2725C20.1097 10.0468 19.8919 9.89809 19.6484 9.89809H18.1971C18.1726 9.89809 18.1493 9.90808 18.1322 9.92571C18.104 9.9553 18.0995 9.99997 18.1207 10.0348C18.7322 11.0358 19.0866 12.2247 19.0866 13.5002C19.0866 17.061 16.3242 19.9484 12.9173 19.9484C9.51034 19.9484 6.75436 17.061 6.75436 13.5002C6.75436 9.93943 9.51014 7.05205 12.9173 7.05205C14.1594 7.05205 15.3159 7.43587 16.2842 8.09673C16.3056 8.11123 16.3342 8.10829 16.352 8.08968C16.3614 8.07988 16.3665 8.06676 16.3665 8.05324V8.05304Z" fill="#426BBA"></path>
<path fill-rule="evenodd" clip-rule="evenodd" d="M12.9159 9.75189C13.4556 9.75189 13.9672 9.8767 14.4264 10.1005L15.0781 9.41921C15.1279 9.36729 15.1153 9.28187 15.0525 9.24719C14.4142 8.89589 13.6871 8.69702 12.9159 8.69702C10.3789 8.69702 8.32031 10.8485 8.32031 13.5C8.32031 16.1515 10.3789 18.303 12.9159 18.303C15.4529 18.303 17.5113 16.1515 17.5113 13.5C17.5113 12.7122 17.3297 11.9688 17.0074 11.3127C16.9739 11.2443 16.8821 11.2308 16.8294 11.2858L16.3118 11.8268L16.2348 11.9073C16.2049 11.9386 16.1959 11.9845 16.2123 12.0245C16.3988 12.4776 16.5018 12.9763 16.5018 13.5C16.5018 15.5686 14.8946 17.2481 12.9157 17.2481C10.9368 17.2481 9.32954 15.5686 9.32954 13.5C9.32954 11.4314 10.9368 9.75189 12.9157 9.75189H12.9159Z" fill="#426BBA"></path>
<path fill-rule="evenodd" clip-rule="evenodd" d="M17.1221 5.0943C16.9895 5.23321 16.9162 5.42052 16.9162 5.62193V8.29419L16.7616 8.45583L15.6388 9.62905L14.9144 10.3863L12.8389 12.5556C12.8389 12.5556 12.8319 12.5627 12.8319 12.5695C12.5667 12.8615 12.5596 13.3191 12.8521 13.6179C13.1377 13.9024 13.5561 13.8956 13.835 13.6179C13.8415 13.6179 13.8482 13.6109 13.8482 13.6109L15.9183 11.4473L16.6443 10.6886L17.7681 9.51384L17.9258 9.34926H20.4826C20.6749 9.34926 20.8546 9.27265 20.9872 9.13374L21.7186 8.36923L23.7886 6.2058L25.3169 4.6084C25.523 4.39327 25.5825 4.07411 25.4697 3.79648C25.3635 3.51179 25.1048 3.33134 24.8123 3.33134H22.6209V1.0964C22.6209 0.790751 22.4483 0.520175 22.1827 0.402423C21.9169 0.291332 21.6113 0.353833 21.4056 0.568765L19.911 2.14794L17.8557 4.31941L17.1221 5.0943Z" fill="#426BBA"></path>
</svg>