<svg width="27" height="27" viewBox="0 0 27 27" fill="none" xmlns="http://www.w3.org/2000/svg">
<path d="M13.2311 26.4439C20.5387 26.4439 26.4622 20.5244 26.4622 13.2219C26.4622 5.91946 20.5387 0 13.2311 0C5.92357 0 0 5.91946 0 13.2219C0 20.5244 5.92357 26.4439 13.2311 26.4439Z" fill="#B01C2E"/>
<path d="M8.66517 6.15371C7.34518 6.71605 6.37309 7.52047 6.08662 8.27721C6.02182 8.44769 6.01161 8.54307 6.01497 8.95214C6.01832 9.83838 6.23329 10.82 6.66643 11.9175C7.25645 13.4103 8.12623 14.7567 9.38493 16.1269C11.6293 18.5673 14.6445 20.1762 17.2332 20.3057C17.7176 20.333 17.9426 20.2886 18.3213 20.091C18.9524 19.7638 19.7301 18.7243 20.1973 17.5857C20.3338 17.2585 20.344 17.1904 20.2724 17.054C20.2143 16.9414 17.0661 14.7055 16.8718 14.6374C16.7319 14.593 16.5751 14.6067 16.4249 14.6817C16.3737 14.709 16.0941 15.0225 15.8007 15.377C15.2038 16.103 15.122 16.1678 14.7911 16.1713C14.6103 16.1713 14.5592 16.1542 14.1397 15.9225C12.2499 14.8897 11.428 14.0682 10.3945 12.1799C10.1626 11.7573 10.1455 11.7094 10.1455 11.5254C10.1489 11.1981 10.2241 11.1028 10.9403 10.5165C11.2882 10.2336 11.5986 9.95067 11.6361 9.89277C11.7078 9.76663 11.718 9.49741 11.6566 9.37462C11.6326 9.33029 11.1041 8.57369 10.4832 7.69766C9.75677 6.66486 9.32349 6.0821 9.26219 6.05133C9.12224 5.97987 9.04373 5.99343 8.66517 6.15371Z" fill="white"/>
</svg>
