<svg width="34" height="35" viewBox="0 0 34 35" fill="none" xmlns="http://www.w3.org/2000/svg">
<rect width="33.4495" height="33.4495" rx="16.7247" fill="white"/>
<path d="M25.1755 12.0789C25.0826 11.7287 24.8996 11.4089 24.6445 11.1514C24.3895 10.894 24.0714 10.7079 23.722 10.6118C22.4429 10.2698 17.3095 10.2698 17.3095 10.2698C17.3095 10.2698 12.1795 10.2698 10.8971 10.6118C10.5477 10.7079 10.2296 10.894 9.97454 11.1514C9.7195 11.4089 9.53642 11.7287 9.44356 12.0789C9.10156 13.3683 9.10156 16.0666 9.10156 16.0666C9.10156 16.0666 9.10156 18.7616 9.44356 20.0544C9.53642 20.4046 9.7195 20.7244 9.97454 20.9819C10.2296 21.2393 10.5477 21.4254 10.8971 21.5215C12.1795 21.8635 17.3095 21.8635 17.3095 21.8635C17.3095 21.8635 22.4395 21.8635 23.722 21.5215C24.0714 21.4254 24.3895 21.2393 24.6445 20.9819C24.8996 20.7244 25.0826 20.4046 25.1755 20.0544C25.5175 18.7616 25.5175 16.0666 25.5175 16.0666C25.5175 16.0666 25.5175 13.3683 25.1755 12.0789ZM15.6303 18.5119V13.6179L19.9224 16.0666L15.6303 18.5119Z" fill="#383D41"/>
</svg>
